<?xml version="1.0" encoding="UTF-8"?>
<svg width="700pt" height="700pt" version="1.1" viewBox="0 0 700 700" xmlns="http://www.w3.org/2000/svg">
 <g>
  <path d="m556.29 393.05-50.891-65.258v-154.98c0-0.61328-0.035157-1.2266-0.10547-1.8203-0.99609-84.805-71.242-153.49-157.48-153.49-86.836 0-157.5 69.668-157.41 156.98v153.7l-47.094 65.414c-3.832 5.3359-4.375 12.371-1.3828 18.219 2.9922 5.8438 9.0117 9.5195 15.574 9.5195h385c6.6836 0 12.773-3.8164 15.715-9.8164 2.9453-6.0234 2.1914-13.18-1.9219-18.465zm-364.63-6.7227 30.434-42.281c2.1523-2.9766 3.2891-6.5625 3.2891-10.219l-0.070312-161.02c0-66.344 54.949-120.31 122.5-120.31 67.531 0 122.5 53.969 122.5 120.31 0 0.57812 0.035156 1.1562 0.085938 1.7344v159.27c0 3.9023 1.2969 7.6836 3.7109 10.762l32.551 41.738h-315z"/>
  <path d="m422.1 437.5h-144.2c-9.6602 0-17.5 7.8398-17.5 17.5 0 49.402 40.199 89.602 89.602 89.602s89.602-40.199 89.602-89.602c-0.003907-9.6602-7.8281-17.5-17.504-17.5zm-72.102 72.102c-23.992 0-44.414-15.559-51.73-37.102h103.46c-7.3164 21.543-27.738 37.102-51.73 37.102z"/>
 </g>
</svg>
